<?xml version="1.0" encoding="UTF-8" standalone="no"?>
<!DOCTYPE svg PUBLIC "-//W3C//DTD SVG 1.1//EN"
 "http://www.w3.org/Graphics/SVG/1.1/DTD/svg11.dtd">
<!-- Generated by graphviz version 2.40.1 (20161225.0304)
 -->
<!-- Title: %0 Pages: 1 -->
<svg width="1639pt" height="260pt"
 viewBox="0.00 0.00 1639.12 260.00" xmlns="http://www.w3.org/2000/svg" xmlns:xlink="http://www.w3.org/1999/xlink">
<g id="graph0" class="graph" transform="scale(1 1) rotate(0) translate(4 256)">
<title>%0</title>
<polygon fill="#ffffff" stroke="transparent" points="-4,4 -4,-256 1635.1227,-256 1635.1227,4 -4,4"/>
<!-- d:\Documents\MMC\src\AHBsubordinate\AHBlite_Block_RAM.v -->
<g id="node1" class="node">
<title>d:\Documents\MMC\src\AHBsubordinate\AHBlite_Block_RAM.v</title>
<polygon fill="#d3d3d3" stroke="#069302" points="154.6781,-180 -.2265,-180 -.2265,-176 -4.2265,-176 -4.2265,-172 -.2265,-172 -.2265,-152 -4.2265,-152 -4.2265,-148 -.2265,-148 -.2265,-144 154.6781,-144 154.6781,-180"/>
<polyline fill="none" stroke="#069302" points="-.2265,-176 3.7735,-176 3.7735,-172 -.2265,-172 "/>
<polyline fill="none" stroke="#069302" points="-.2265,-152 3.7735,-152 3.7735,-148 -.2265,-148 "/>
<text text-anchor="middle" x="77.2258" y="-157.8" font-family="Helvetica,sans-Serif" font-size="14.00" fill="#000000">AHBlite_Block_RAM.v</text>
</g>
<!-- d:\Documents\MMC\src\AHBsubordinate\AHBlite_Block_RAM_FM_Data.v -->
<g id="node2" class="node">
<title>d:\Documents\MMC\src\AHBsubordinate\AHBlite_Block_RAM_FM_Data.v</title>
<polygon fill="#d3d3d3" stroke="#069302" points="392.0183,-180 172.4333,-180 172.4333,-176 168.4333,-176 168.4333,-172 172.4333,-172 172.4333,-152 168.4333,-152 168.4333,-148 172.4333,-148 172.4333,-144 392.0183,-144 392.0183,-180"/>
<polyline fill="none" stroke="#069302" points="172.4333,-176 176.4333,-176 176.4333,-172 172.4333,-172 "/>
<polyline fill="none" stroke="#069302" points="172.4333,-152 176.4333,-152 176.4333,-148 172.4333,-148 "/>
<text text-anchor="middle" x="282.2258" y="-157.8" font-family="Helvetica,sans-Serif" font-size="14.00" fill="#000000">AHBlite_Block_RAM_FM_Data.v</text>
</g>
<!-- d:\Documents\MMC\src\AHBsubordinate\AHBlite_Decoder.v -->
<g id="node3" class="node">
<title>d:\Documents\MMC\src\AHBsubordinate\AHBlite_Decoder.v</title>
<polygon fill="#d3d3d3" stroke="#069302" points="438.463,-108 303.9886,-108 303.9886,-104 299.9886,-104 299.9886,-100 303.9886,-100 303.9886,-80 299.9886,-80 299.9886,-76 303.9886,-76 303.9886,-72 438.463,-72 438.463,-108"/>
<polyline fill="none" stroke="#069302" points="303.9886,-104 307.9886,-104 307.9886,-100 303.9886,-100 "/>
<polyline fill="none" stroke="#069302" points="303.9886,-80 307.9886,-80 307.9886,-76 303.9886,-76 "/>
<text text-anchor="middle" x="371.2258" y="-85.8" font-family="Helvetica,sans-Serif" font-size="14.00" fill="#000000">AHBlite_Decoder.v</text>
</g>
<!-- d:\Documents\MMC\src\AHBsubordinate\AHBlite_Interconnect.v -->
<g id="node4" class="node">
<title>d:\Documents\MMC\src\AHBsubordinate\AHBlite_Interconnect.v</title>
<polygon fill="#d3d3d3" stroke="#069302" points="568.5936,-180 409.858,-180 409.858,-176 405.858,-176 405.858,-172 409.858,-172 409.858,-152 405.858,-152 405.858,-148 409.858,-148 409.858,-144 568.5936,-144 568.5936,-180"/>
<polyline fill="none" stroke="#069302" points="409.858,-176 413.858,-176 413.858,-172 409.858,-172 "/>
<polyline fill="none" stroke="#069302" points="409.858,-152 413.858,-152 413.858,-148 409.858,-148 "/>
<text text-anchor="middle" x="489.2258" y="-157.8" font-family="Helvetica,sans-Serif" font-size="14.00" fill="#000000">AHBlite_Interconnect.v</text>
</g>
<!-- d:\Documents\MMC\src\AHBsubordinate\AHBlite_Interconnect.v&#45;&gt;d:\Documents\MMC\src\AHBsubordinate\AHBlite_Decoder.v -->
<g id="edge1" class="edge">
<title>d:\Documents\MMC\src\AHBsubordinate\AHBlite_Interconnect.v&#45;&gt;d:\Documents\MMC\src\AHBsubordinate\AHBlite_Decoder.v</title>
<path fill="none" stroke="#000000" d="M459.4494,-143.8314C444.3565,-134.6221 425.8501,-123.3301 409.6915,-113.4706"/>
<polygon fill="#000000" stroke="#000000" points="411.3521,-110.3838 400.9927,-108.1628 407.706,-116.3593 411.3521,-110.3838"/>
</g>
<!-- d:\Documents\MMC\src\AHBsubordinate\AHBlite_SlaveMUX.v -->
<g id="node5" class="node">
<title>d:\Documents\MMC\src\AHBsubordinate\AHBlite_SlaveMUX.v</title>
<polygon fill="#d3d3d3" stroke="#069302" points="604.1781,-108 456.2735,-108 456.2735,-104 452.2735,-104 452.2735,-100 456.2735,-100 456.2735,-80 452.2735,-80 452.2735,-76 456.2735,-76 456.2735,-72 604.1781,-72 604.1781,-108"/>
<polyline fill="none" stroke="#069302" points="456.2735,-104 460.2735,-104 460.2735,-100 456.2735,-100 "/>
<polyline fill="none" stroke="#069302" points="456.2735,-80 460.2735,-80 460.2735,-76 456.2735,-76 "/>
<text text-anchor="middle" x="530.2258" y="-85.8" font-family="Helvetica,sans-Serif" font-size="14.00" fill="#000000">AHBlite_SlaveMUX.v</text>
</g>
<!-- d:\Documents\MMC\src\AHBsubordinate\AHBlite_Interconnect.v&#45;&gt;d:\Documents\MMC\src\AHBsubordinate\AHBlite_SlaveMUX.v -->
<g id="edge2" class="edge">
<title>d:\Documents\MMC\src\AHBsubordinate\AHBlite_Interconnect.v&#45;&gt;d:\Documents\MMC\src\AHBsubordinate\AHBlite_SlaveMUX.v</title>
<path fill="none" stroke="#000000" d="M499.5718,-143.8314C504.1495,-135.7925 509.631,-126.1666 514.6846,-117.2918"/>
<polygon fill="#000000" stroke="#000000" points="517.8335,-118.8351 519.7405,-108.4133 511.7506,-115.3712 517.8335,-118.8351"/>
</g>
<!-- d:\Documents\MMC\src\AHBsubordinate\AHBlite_SPI.v -->
<g id="node6" class="node">
<title>d:\Documents\MMC\src\AHBsubordinate\AHBlite_SPI.v</title>
<polygon fill="#d3d3d3" stroke="#069302" points="690.129,-180 586.3226,-180 586.3226,-176 582.3226,-176 582.3226,-172 586.3226,-172 586.3226,-152 582.3226,-152 582.3226,-148 586.3226,-148 586.3226,-144 690.129,-144 690.129,-180"/>
<polyline fill="none" stroke="#069302" points="586.3226,-176 590.3226,-176 590.3226,-172 586.3226,-172 "/>
<polyline fill="none" stroke="#069302" points="586.3226,-152 590.3226,-152 590.3226,-148 586.3226,-148 "/>
<text text-anchor="middle" x="638.2258" y="-157.8" font-family="Helvetica,sans-Serif" font-size="14.00" fill="#000000">AHBlite_SPI.v</text>
</g>
<!-- d:\Documents\MMC\src\AHBsubordinate\AHBlite_UART.v -->
<g id="node7" class="node">
<title>d:\Documents\MMC\src\AHBsubordinate\AHBlite_UART.v</title>
<polygon fill="#d3d3d3" stroke="#069302" points="828.1684,-180 708.2832,-180 708.2832,-176 704.2832,-176 704.2832,-172 708.2832,-172 708.2832,-152 704.2832,-152 704.2832,-148 708.2832,-148 708.2832,-144 828.1684,-144 828.1684,-180"/>
<polyline fill="none" stroke="#069302" points="708.2832,-176 712.2832,-176 712.2832,-172 708.2832,-172 "/>
<polyline fill="none" stroke="#069302" points="708.2832,-152 712.2832,-152 712.2832,-148 708.2832,-148 "/>
<text text-anchor="middle" x="768.2258" y="-157.8" font-family="Helvetica,sans-Serif" font-size="14.00" fill="#000000">AHBlite_UART.v</text>
</g>
<!-- d:\Documents\MMC\src\demodulation\clk_fm_demodulation.v -->
<g id="node8" class="node">
<title>d:\Documents\MMC\src\demodulation\clk_fm_demodulation.v</title>
<polygon fill="#d3d3d3" stroke="#069302" points="811.8647,-36 652.5869,-36 652.5869,-32 648.5869,-32 648.5869,-28 652.5869,-28 652.5869,-8 648.5869,-8 648.5869,-4 652.5869,-4 652.5869,0 811.8647,0 811.8647,-36"/>
<polyline fill="none" stroke="#069302" points="652.5869,-32 656.5869,-32 656.5869,-28 652.5869,-28 "/>
<polyline fill="none" stroke="#069302" points="652.5869,-8 656.5869,-8 656.5869,-4 652.5869,-4 "/>
<text text-anchor="middle" x="732.2258" y="-13.8" font-family="Helvetica,sans-Serif" font-size="14.00" fill="#000000">clk_fm_demodulation.v</text>
</g>
<!-- d:\Documents\MMC\src\demodulation\FM_Demodulation.v -->
<g id="node9" class="node">
<title>d:\Documents\MMC\src\demodulation\FM_Demodulation.v</title>
<polygon fill="#d3d3d3" stroke="#069302" points="802.9616,-108 661.49,-108 661.49,-104 657.49,-104 657.49,-100 661.49,-100 661.49,-80 657.49,-80 657.49,-76 661.49,-76 661.49,-72 802.9616,-72 802.9616,-108"/>
<polyline fill="none" stroke="#069302" points="661.49,-104 665.49,-104 665.49,-100 661.49,-100 "/>
<polyline fill="none" stroke="#069302" points="661.49,-80 665.49,-80 665.49,-76 661.49,-76 "/>
<text text-anchor="middle" x="732.2258" y="-85.8" font-family="Helvetica,sans-Serif" font-size="14.00" fill="#000000">FM_Demodulation.v</text>
</g>
<!-- d:\Documents\MMC\src\demodulation\FM_Demodulation.v&#45;&gt;d:\Documents\MMC\src\demodulation\clk_fm_demodulation.v -->
<g id="edge3" class="edge">
<title>d:\Documents\MMC\src\demodulation\FM_Demodulation.v&#45;&gt;d:\Documents\MMC\src\demodulation\clk_fm_demodulation.v</title>
<path fill="none" stroke="#000000" d="M732.2258,-71.8314C732.2258,-64.131 732.2258,-54.9743 732.2258,-46.4166"/>
<polygon fill="#000000" stroke="#000000" points="735.7259,-46.4132 732.2258,-36.4133 728.7259,-46.4133 735.7259,-46.4132"/>
</g>
<!-- d:\Documents\MMC\src\demodulation\FM_Dump_Data.v -->
<g id="node10" class="node">
<title>d:\Documents\MMC\src\demodulation\FM_Dump_Data.v</title>
<polygon fill="#d3d3d3" stroke="#069302" points="949.7903,-108 820.6613,-108 820.6613,-104 816.6613,-104 816.6613,-100 820.6613,-100 820.6613,-80 816.6613,-80 816.6613,-76 820.6613,-76 820.6613,-72 949.7903,-72 949.7903,-108"/>
<polyline fill="none" stroke="#069302" points="820.6613,-104 824.6613,-104 824.6613,-100 820.6613,-100 "/>
<polyline fill="none" stroke="#069302" points="820.6613,-80 824.6613,-80 824.6613,-76 820.6613,-76 "/>
<text text-anchor="middle" x="885.2258" y="-85.8" font-family="Helvetica,sans-Serif" font-size="14.00" fill="#000000">FM_Dump_Data.v</text>
</g>
<!-- d:\Documents\MMC\src\demodulation\FM_HW.v -->
<g id="node11" class="node">
<title>d:\Documents\MMC\src\demodulation\FM_HW.v</title>
<polygon fill="#d3d3d3" stroke="#069302" points="924.4337,-180 846.0179,-180 846.0179,-176 842.0179,-176 842.0179,-172 846.0179,-172 846.0179,-152 842.0179,-152 842.0179,-148 846.0179,-148 846.0179,-144 924.4337,-144 924.4337,-180"/>
<polyline fill="none" stroke="#069302" points="846.0179,-176 850.0179,-176 850.0179,-172 846.0179,-172 "/>
<polyline fill="none" stroke="#069302" points="846.0179,-152 850.0179,-152 850.0179,-148 846.0179,-148 "/>
<text text-anchor="middle" x="885.2258" y="-157.8" font-family="Helvetica,sans-Serif" font-size="14.00" fill="#000000">FM_HW.v</text>
</g>
<!-- d:\Documents\MMC\src\demodulation\FM_HW.v&#45;&gt;d:\Documents\MMC\src\demodulation\FM_Demodulation.v -->
<g id="edge6" class="edge">
<title>d:\Documents\MMC\src\demodulation\FM_HW.v&#45;&gt;d:\Documents\MMC\src\demodulation\FM_Demodulation.v</title>
<path fill="none" stroke="#000000" d="M846.6174,-143.8314C826.3365,-134.2874 801.302,-122.5065 779.8287,-112.4013"/>
<polygon fill="#000000" stroke="#000000" points="781.095,-109.1291 770.5565,-108.038 778.1144,-115.4629 781.095,-109.1291"/>
</g>
<!-- d:\Documents\MMC\src\demodulation\FM_HW.v&#45;&gt;d:\Documents\MMC\src\demodulation\FM_Dump_Data.v -->
<g id="edge5" class="edge">
<title>d:\Documents\MMC\src\demodulation\FM_HW.v&#45;&gt;d:\Documents\MMC\src\demodulation\FM_Dump_Data.v</title>
<path fill="none" stroke="#000000" d="M885.2258,-143.8314C885.2258,-136.131 885.2258,-126.9743 885.2258,-118.4166"/>
<polygon fill="#000000" stroke="#000000" points="888.7259,-118.4132 885.2258,-108.4133 881.7259,-118.4133 888.7259,-118.4132"/>
</g>
<!-- d:\Documents\MMC\src\peripherals\Audio_PWM.v -->
<g id="node12" class="node">
<title>d:\Documents\MMC\src\peripherals\Audio_PWM.v</title>
<polygon fill="#d3d3d3" stroke="#069302" points="1072.4023,-108 968.0493,-108 968.0493,-104 964.0493,-104 964.0493,-100 968.0493,-100 968.0493,-80 964.0493,-80 964.0493,-76 968.0493,-76 968.0493,-72 1072.4023,-72 1072.4023,-108"/>
<polyline fill="none" stroke="#069302" points="968.0493,-104 972.0493,-104 972.0493,-100 968.0493,-100 "/>
<polyline fill="none" stroke="#069302" points="968.0493,-80 972.0493,-80 972.0493,-76 968.0493,-76 "/>
<text text-anchor="middle" x="1020.2258" y="-85.8" font-family="Helvetica,sans-Serif" font-size="14.00" fill="#000000">Audio_PWM.v</text>
</g>
<!-- d:\Documents\MMC\src\demodulation\FM_HW.v&#45;&gt;d:\Documents\MMC\src\peripherals\Audio_PWM.v -->
<g id="edge4" class="edge">
<title>d:\Documents\MMC\src\demodulation\FM_HW.v&#45;&gt;d:\Documents\MMC\src\peripherals\Audio_PWM.v</title>
<path fill="none" stroke="#000000" d="M919.292,-143.8314C936.8791,-134.4516 958.5174,-122.9112 977.2426,-112.9244"/>
<polygon fill="#000000" stroke="#000000" points="978.994,-115.957 986.1705,-108.1628 975.6999,-109.7805 978.994,-115.957"/>
</g>
<!-- d:\Documents\MMC\src\peripherals\Block_RAM.v -->
<g id="node13" class="node">
<title>d:\Documents\MMC\src\peripherals\Block_RAM.v</title>
<polygon fill="#d3d3d3" stroke="#069302" points="1042.2286,-180 942.223,-180 942.223,-176 938.223,-176 938.223,-172 942.223,-172 942.223,-152 938.223,-152 938.223,-148 942.223,-148 942.223,-144 1042.2286,-144 1042.2286,-180"/>
<polyline fill="none" stroke="#069302" points="942.223,-176 946.223,-176 946.223,-172 942.223,-172 "/>
<polyline fill="none" stroke="#069302" points="942.223,-152 946.223,-152 946.223,-148 942.223,-148 "/>
<text text-anchor="middle" x="992.2258" y="-157.8" font-family="Helvetica,sans-Serif" font-size="14.00" fill="#000000">Block_RAM.v</text>
</g>
<!-- d:\Documents\MMC\src\peripherals\clkuart_pwm.v -->
<g id="node14" class="node">
<title>d:\Documents\MMC\src\peripherals\clkuart_pwm.v</title>
<polygon fill="#d3d3d3" stroke="#069302" points="1166.1727,-180 1060.2789,-180 1060.2789,-176 1056.2789,-176 1056.2789,-172 1060.2789,-172 1060.2789,-152 1056.2789,-152 1056.2789,-148 1060.2789,-148 1060.2789,-144 1166.1727,-144 1166.1727,-180"/>
<polyline fill="none" stroke="#069302" points="1060.2789,-176 1064.2789,-176 1064.2789,-172 1060.2789,-172 "/>
<polyline fill="none" stroke="#069302" points="1060.2789,-152 1064.2789,-152 1064.2789,-148 1060.2789,-148 "/>
<text text-anchor="middle" x="1113.2258" y="-157.8" font-family="Helvetica,sans-Serif" font-size="14.00" fill="#000000">clkuart_pwm.v</text>
</g>
<!-- d:\Documents\MMC\src\peripherals\FIFO.v -->
<g id="node15" class="node">
<title>d:\Documents\MMC\src\peripherals\FIFO.v</title>
<polygon fill="#d3d3d3" stroke="#069302" points="1461.5032,-108 1402.9484,-108 1402.9484,-104 1398.9484,-104 1398.9484,-100 1402.9484,-100 1402.9484,-80 1398.9484,-80 1398.9484,-76 1402.9484,-76 1402.9484,-72 1461.5032,-72 1461.5032,-108"/>
<polyline fill="none" stroke="#069302" points="1402.9484,-104 1406.9484,-104 1406.9484,-100 1402.9484,-100 "/>
<polyline fill="none" stroke="#069302" points="1402.9484,-80 1406.9484,-80 1406.9484,-76 1402.9484,-76 "/>
<text text-anchor="middle" x="1432.2258" y="-85.8" font-family="Helvetica,sans-Serif" font-size="14.00" fill="#000000">FIFO.v</text>
</g>
<!-- d:\Documents\MMC\src\peripherals\FIFO_SPI.v -->
<g id="node16" class="node">
<title>d:\Documents\MMC\src\peripherals\FIFO_SPI.v</title>
<polygon fill="#d3d3d3" stroke="#069302" points="1265.8493,-108 1176.6023,-108 1176.6023,-104 1172.6023,-104 1172.6023,-100 1176.6023,-100 1176.6023,-80 1172.6023,-80 1172.6023,-76 1176.6023,-76 1176.6023,-72 1265.8493,-72 1265.8493,-108"/>
<polyline fill="none" stroke="#069302" points="1176.6023,-104 1180.6023,-104 1180.6023,-100 1176.6023,-100 "/>
<polyline fill="none" stroke="#069302" points="1176.6023,-80 1180.6023,-80 1180.6023,-76 1176.6023,-76 "/>
<text text-anchor="middle" x="1221.2258" y="-85.8" font-family="Helvetica,sans-Serif" font-size="14.00" fill="#000000">FIFO_SPI.v</text>
</g>
<!-- d:\Documents\MMC\src\peripherals\SPI_TX.v -->
<g id="node17" class="node">
<title>d:\Documents\MMC\src\peripherals\SPI_TX.v</title>
<polygon fill="#d3d3d3" stroke="#069302" points="1258.8521,-180 1183.5995,-180 1183.5995,-176 1179.5995,-176 1179.5995,-172 1183.5995,-172 1183.5995,-152 1179.5995,-152 1179.5995,-148 1183.5995,-148 1183.5995,-144 1258.8521,-144 1258.8521,-180"/>
<polyline fill="none" stroke="#069302" points="1183.5995,-176 1187.5995,-176 1187.5995,-172 1183.5995,-172 "/>
<polyline fill="none" stroke="#069302" points="1183.5995,-152 1187.5995,-152 1187.5995,-148 1183.5995,-148 "/>
<text text-anchor="middle" x="1221.2258" y="-157.8" font-family="Helvetica,sans-Serif" font-size="14.00" fill="#000000">SPI_TX.v</text>
</g>
<!-- d:\Documents\MMC\src\peripherals\SPI_TX.v&#45;&gt;d:\Documents\MMC\src\peripherals\FIFO_SPI.v -->
<g id="edge7" class="edge">
<title>d:\Documents\MMC\src\peripherals\SPI_TX.v&#45;&gt;d:\Documents\MMC\src\peripherals\FIFO_SPI.v</title>
<path fill="none" stroke="#000000" d="M1221.2258,-143.8314C1221.2258,-136.131 1221.2258,-126.9743 1221.2258,-118.4166"/>
<polygon fill="#000000" stroke="#000000" points="1224.7259,-118.4132 1221.2258,-108.4133 1217.7259,-118.4133 1224.7259,-118.4132"/>
</g>
<!-- d:\Documents\MMC\src\peripherals\UART_RX.v -->
<g id="node18" class="node">
<title>d:\Documents\MMC\src\peripherals\UART_RX.v</title>
<polygon fill="#d3d3d3" stroke="#069302" points="1369.4449,-180 1277.0067,-180 1277.0067,-176 1273.0067,-176 1273.0067,-172 1277.0067,-172 1277.0067,-152 1273.0067,-152 1273.0067,-148 1277.0067,-148 1277.0067,-144 1369.4449,-144 1369.4449,-180"/>
<polyline fill="none" stroke="#069302" points="1277.0067,-176 1281.0067,-176 1281.0067,-172 1277.0067,-172 "/>
<polyline fill="none" stroke="#069302" points="1277.0067,-152 1281.0067,-152 1281.0067,-148 1277.0067,-148 "/>
<text text-anchor="middle" x="1323.2258" y="-157.8" font-family="Helvetica,sans-Serif" font-size="14.00" fill="#000000">UART_RX.v</text>
</g>
<!-- d:\Documents\MMC\src\peripherals\UART_TX.v -->
<g id="node19" class="node">
<title>d:\Documents\MMC\src\peripherals\UART_TX.v</title>
<polygon fill="#d3d3d3" stroke="#069302" points="1477.3912,-180 1387.0604,-180 1387.0604,-176 1383.0604,-176 1383.0604,-172 1387.0604,-172 1387.0604,-152 1383.0604,-152 1383.0604,-148 1387.0604,-148 1387.0604,-144 1477.3912,-144 1477.3912,-180"/>
<polyline fill="none" stroke="#069302" points="1387.0604,-176 1391.0604,-176 1391.0604,-172 1387.0604,-172 "/>
<polyline fill="none" stroke="#069302" points="1387.0604,-152 1391.0604,-152 1391.0604,-148 1387.0604,-148 "/>
<text text-anchor="middle" x="1432.2258" y="-157.8" font-family="Helvetica,sans-Serif" font-size="14.00" fill="#000000">UART_TX.v</text>
</g>
<!-- d:\Documents\MMC\src\peripherals\UART_TX.v&#45;&gt;d:\Documents\MMC\src\peripherals\FIFO.v -->
<g id="edge8" class="edge">
<title>d:\Documents\MMC\src\peripherals\UART_TX.v&#45;&gt;d:\Documents\MMC\src\peripherals\FIFO.v</title>
<path fill="none" stroke="#000000" d="M1432.2258,-143.8314C1432.2258,-136.131 1432.2258,-126.9743 1432.2258,-118.4166"/>
<polygon fill="#000000" stroke="#000000" points="1435.7259,-118.4132 1432.2258,-108.4133 1428.7259,-118.4133 1435.7259,-118.4132"/>
</g>
<!-- d:\Documents\MMC\src\topmodule\cortexm0ds_logic.v -->
<g id="node20" class="node">
<title>d:\Documents\MMC\src\topmodule\cortexm0ds_logic.v</title>
<polygon fill="#d3d3d3" stroke="#069302" points="1631.0198,-180 1495.4318,-180 1495.4318,-176 1491.4318,-176 1491.4318,-172 1495.4318,-172 1495.4318,-152 1491.4318,-152 1491.4318,-148 1495.4318,-148 1495.4318,-144 1631.0198,-144 1631.0198,-180"/>
<polyline fill="none" stroke="#069302" points="1495.4318,-176 1499.4318,-176 1499.4318,-172 1495.4318,-172 "/>
<polyline fill="none" stroke="#069302" points="1495.4318,-152 1499.4318,-152 1499.4318,-148 1495.4318,-148 "/>
<text text-anchor="middle" x="1563.2258" y="-157.8" font-family="Helvetica,sans-Serif" font-size="14.00" fill="#000000">cortexm0ds_logic.v</text>
</g>
<!-- d:\Documents\MMC\src\topmodule\CortexM0_SoC.v -->
<g id="node21" class="node">
<title>d:\Documents\MMC\src\topmodule\CortexM0_SoC.v</title>
<polygon fill="#d3d3d3" stroke="#069302" points="999.2918,-252 877.1598,-252 877.1598,-248 873.1598,-248 873.1598,-244 877.1598,-244 877.1598,-224 873.1598,-224 873.1598,-220 877.1598,-220 877.1598,-216 999.2918,-216 999.2918,-252"/>
<polyline fill="none" stroke="#069302" points="877.1598,-248 881.1598,-248 881.1598,-244 877.1598,-244 "/>
<polyline fill="none" stroke="#069302" points="877.1598,-224 881.1598,-224 881.1598,-220 877.1598,-220 "/>
<text text-anchor="middle" x="938.2258" y="-229.8" font-family="Helvetica,sans-Serif" font-size="14.00" fill="#000000">CortexM0_SoC.v</text>
</g>
<!-- d:\Documents\MMC\src\topmodule\CortexM0_SoC.v&#45;&gt;d:\Documents\MMC\src\AHBsubordinate\AHBlite_Block_RAM.v -->
<g id="edge11" class="edge">
<title>d:\Documents\MMC\src\topmodule\CortexM0_SoC.v&#45;&gt;d:\Documents\MMC\src\AHBsubordinate\AHBlite_Block_RAM.v</title>
<path fill="none" stroke="#000000" d="M877.1443,-232.5814C747.4905,-228.9565 435.1547,-216.9727 164.508,-180.072"/>
<polygon fill="#000000" stroke="#000000" points="164.8778,-176.59 154.4936,-178.6925 163.9225,-183.5245 164.8778,-176.59"/>
</g>
<!-- d:\Documents\MMC\src\topmodule\CortexM0_SoC.v&#45;&gt;d:\Documents\MMC\src\AHBsubordinate\AHBlite_Block_RAM_FM_Data.v -->
<g id="edge12" class="edge">
<title>d:\Documents\MMC\src\topmodule\CortexM0_SoC.v&#45;&gt;d:\Documents\MMC\src\AHBsubordinate\AHBlite_Block_RAM_FM_Data.v</title>
<path fill="none" stroke="#000000" d="M876.9078,-228.8369C778.9164,-220.3648 580.7423,-202.3267 402.2026,-180.0892"/>
<polygon fill="#000000" stroke="#000000" points="402.4558,-176.5936 392.0983,-178.8235 401.5857,-183.5393 402.4558,-176.5936"/>
</g>
<!-- d:\Documents\MMC\src\topmodule\CortexM0_SoC.v&#45;&gt;d:\Documents\MMC\src\AHBsubordinate\AHBlite_Interconnect.v -->
<g id="edge18" class="edge">
<title>d:\Documents\MMC\src\topmodule\CortexM0_SoC.v&#45;&gt;d:\Documents\MMC\src\AHBsubordinate\AHBlite_Interconnect.v</title>
<path fill="none" stroke="#000000" d="M877.0651,-225.8635C807.242,-216.3475 689.3751,-199.5944 578.8048,-180.2371"/>
<polygon fill="#000000" stroke="#000000" points="579.2704,-176.7653 568.8149,-178.4775 578.0561,-183.6592 579.2704,-176.7653"/>
</g>
<!-- d:\Documents\MMC\src\topmodule\CortexM0_SoC.v&#45;&gt;d:\Documents\MMC\src\AHBsubordinate\AHBlite_SPI.v -->
<g id="edge16" class="edge">
<title>d:\Documents\MMC\src\topmodule\CortexM0_SoC.v&#45;&gt;d:\Documents\MMC\src\AHBsubordinate\AHBlite_SPI.v</title>
<path fill="none" stroke="#000000" d="M877.0586,-221.321C830.8858,-211.4886 765.7806,-197.0699 700.0999,-180.1531"/>
<polygon fill="#000000" stroke="#000000" points="700.9657,-176.7619 690.4073,-177.6393 699.2083,-183.5377 700.9657,-176.7619"/>
</g>
<!-- d:\Documents\MMC\src\topmodule\CortexM0_SoC.v&#45;&gt;d:\Documents\MMC\src\AHBsubordinate\AHBlite_UART.v -->
<g id="edge9" class="edge">
<title>d:\Documents\MMC\src\topmodule\CortexM0_SoC.v&#45;&gt;d:\Documents\MMC\src\AHBsubordinate\AHBlite_UART.v</title>
<path fill="none" stroke="#000000" d="M895.3276,-215.8314C872.4901,-206.159 844.2278,-194.1891 820.1571,-183.9944"/>
<polygon fill="#000000" stroke="#000000" points="821.3887,-180.7151 810.8155,-180.038 818.6587,-187.1608 821.3887,-180.7151"/>
</g>
<!-- d:\Documents\MMC\src\topmodule\CortexM0_SoC.v&#45;&gt;d:\Documents\MMC\src\demodulation\FM_HW.v -->
<g id="edge10" class="edge">
<title>d:\Documents\MMC\src\topmodule\CortexM0_SoC.v&#45;&gt;d:\Documents\MMC\src\demodulation\FM_HW.v</title>
<path fill="none" stroke="#000000" d="M924.8517,-215.8314C918.8096,-207.6232 911.5495,-197.7606 904.9037,-188.7323"/>
<polygon fill="#000000" stroke="#000000" points="907.5269,-186.3918 898.78,-180.4133 901.8895,-190.5415 907.5269,-186.3918"/>
</g>
<!-- d:\Documents\MMC\src\topmodule\CortexM0_SoC.v&#45;&gt;d:\Documents\MMC\src\peripherals\Block_RAM.v -->
<g id="edge13" class="edge">
<title>d:\Documents\MMC\src\topmodule\CortexM0_SoC.v&#45;&gt;d:\Documents\MMC\src\peripherals\Block_RAM.v</title>
<path fill="none" stroke="#000000" d="M951.8523,-215.8314C958.0718,-207.5386 965.558,-197.557 972.3858,-188.4533"/>
<polygon fill="#000000" stroke="#000000" points="975.2158,-190.5133 978.4158,-180.4133 969.6158,-186.3133 975.2158,-190.5133"/>
</g>
<!-- d:\Documents\MMC\src\topmodule\CortexM0_SoC.v&#45;&gt;d:\Documents\MMC\src\peripherals\clkuart_pwm.v -->
<g id="edge14" class="edge">
<title>d:\Documents\MMC\src\topmodule\CortexM0_SoC.v&#45;&gt;d:\Documents\MMC\src\peripherals\clkuart_pwm.v</title>
<path fill="none" stroke="#000000" d="M982.3857,-215.8314C1005.999,-206.1162 1035.246,-194.0831 1060.0958,-183.8592"/>
<polygon fill="#000000" stroke="#000000" points="1061.4673,-187.0797 1069.3835,-180.038 1058.8039,-180.6061 1061.4673,-187.0797"/>
</g>
<!-- d:\Documents\MMC\src\topmodule\CortexM0_SoC.v&#45;&gt;d:\Documents\MMC\src\peripherals\SPI_TX.v -->
<g id="edge20" class="edge">
<title>d:\Documents\MMC\src\topmodule\CortexM0_SoC.v&#45;&gt;d:\Documents\MMC\src\peripherals\SPI_TX.v</title>
<path fill="none" stroke="#000000" d="M999.7734,-222.5958C1045.6494,-213.4996 1109.8952,-199.5072 1173.6647,-180.2866"/>
<polygon fill="#000000" stroke="#000000" points="1174.94,-183.5567 1183.4792,-177.2852 1172.8928,-176.8627 1174.94,-183.5567"/>
</g>
<!-- d:\Documents\MMC\src\topmodule\CortexM0_SoC.v&#45;&gt;d:\Documents\MMC\src\peripherals\UART_RX.v -->
<g id="edge19" class="edge">
<title>d:\Documents\MMC\src\topmodule\CortexM0_SoC.v&#45;&gt;d:\Documents\MMC\src\peripherals\UART_RX.v</title>
<path fill="none" stroke="#000000" d="M999.3093,-226.8702C1063.8299,-218.6978 1168.5684,-203.6081 1267.045,-180.1066"/>
<polygon fill="#000000" stroke="#000000" points="1267.9643,-183.4852 1276.8602,-177.7308 1266.3174,-176.6817 1267.9643,-183.4852"/>
</g>
<!-- d:\Documents\MMC\src\topmodule\CortexM0_SoC.v&#45;&gt;d:\Documents\MMC\src\peripherals\UART_TX.v -->
<g id="edge15" class="edge">
<title>d:\Documents\MMC\src\topmodule\CortexM0_SoC.v&#45;&gt;d:\Documents\MMC\src\peripherals\UART_TX.v</title>
<path fill="none" stroke="#000000" d="M999.3805,-230.3635C1082.9669,-224.5412 1237.5098,-210.7368 1377.0206,-180.0308"/>
<polygon fill="#000000" stroke="#000000" points="1378.0431,-183.3887 1387.0383,-177.7906 1376.5154,-176.5574 1378.0431,-183.3887"/>
</g>
<!-- d:\Documents\MMC\src\topmodule\CortexM0_SoC.v&#45;&gt;d:\Documents\MMC\src\topmodule\cortexm0ds_logic.v -->
<g id="edge17" class="edge">
<title>d:\Documents\MMC\src\topmodule\CortexM0_SoC.v&#45;&gt;d:\Documents\MMC\src\topmodule\cortexm0ds_logic.v</title>
<path fill="none" stroke="#000000" d="M999.3874,-230.6047C1099.1655,-224.4887 1303.2492,-209.5713 1485.2787,-180.0338"/>
<polygon fill="#000000" stroke="#000000" points="1486.0019,-183.462 1495.3029,-178.3886 1484.8681,-176.5545 1486.0019,-183.462"/>
</g>
</g>
</svg>
