<?xml version="1.0" encoding="UTF-8" standalone="no"?>
<!DOCTYPE svg PUBLIC "-//W3C//DTD SVG 1.1//EN"
 "http://www.w3.org/Graphics/SVG/1.1/DTD/svg11.dtd">
<!-- Generated by graphviz version 2.40.1 (20161225.0304)
 -->
<!-- Title: state transitions Pages: 1 -->
<svg width="196pt" height="516pt"
 viewBox="0.00 0.00 196.00 516.00" xmlns="http://www.w3.org/2000/svg" xmlns:xlink="http://www.w3.org/1999/xlink">
<g id="graph0" class="graph" transform="scale(1 1) rotate(0) translate(4 512)">
<title>state transitions</title>
<polygon fill="#ffffff" stroke="transparent" points="-4,4 -4,-512 192,-512 192,4 -4,4"/>
<g id="clust1" class="cluster state regular">
<title>cluster_size_dec</title>
<path fill="none" stroke="#000000" stroke-width="2" d="M20,-8C20,-8 168,-8 168,-8 174,-8 180,-14 180,-20 180,-20 180,-488 180,-488 180,-494 174,-500 168,-500 168,-500 20,-500 20,-500 14,-500 8,-494 8,-488 8,-488 8,-20 8,-20 8,-14 14,-8 20,-8"/>
<text text-anchor="start" x="70.827" y="-481.2" font-family="Helvetica,sans-Serif" font-size="12.00" fill="#000000">size_dec</text>
</g>
<!-- size_dec -->
<!-- 4&#39;h0 -->
<g id="node2" class="node state regular">
<title>4&#39;h0</title>
<polygon fill="#ffffff" fill-opacity="0.003922" stroke="transparent" stroke-width="2" points="150,-462 94,-462 94,-426 150,-426 150,-462"/>
<text text-anchor="start" x="110.6684" y="-440.2" font-family="Helvetica,sans-Serif" font-size="12.00" fill="#000000">4&#39;h0</text>
<path fill="none" stroke="#000000" stroke-width="2" d="M106.3333,-427C106.3333,-427 137.6667,-427 137.6667,-427 143.3333,-427 149,-432.6667 149,-438.3333 149,-438.3333 149,-449.6667 149,-449.6667 149,-455.3333 143.3333,-461 137.6667,-461 137.6667,-461 106.3333,-461 106.3333,-461 100.6667,-461 95,-455.3333 95,-449.6667 95,-449.6667 95,-438.3333 95,-438.3333 95,-432.6667 100.6667,-427 106.3333,-427"/>
</g>
<!-- 4&#39;h1 -->
<g id="node3" class="node state regular">
<title>4&#39;h1</title>
<polygon fill="#ffffff" fill-opacity="0.003922" stroke="transparent" stroke-width="2" points="150,-380 94,-380 94,-344 150,-344 150,-380"/>
<text text-anchor="start" x="110.6684" y="-358.2" font-family="Helvetica,sans-Serif" font-size="12.00" fill="#000000">4&#39;h1</text>
<path fill="none" stroke="#000000" stroke-width="2" d="M106.3333,-345C106.3333,-345 137.6667,-345 137.6667,-345 143.3333,-345 149,-350.6667 149,-356.3333 149,-356.3333 149,-367.6667 149,-367.6667 149,-373.3333 143.3333,-379 137.6667,-379 137.6667,-379 106.3333,-379 106.3333,-379 100.6667,-379 95,-373.3333 95,-367.6667 95,-367.6667 95,-356.3333 95,-356.3333 95,-350.6667 100.6667,-345 106.3333,-345"/>
</g>
<!-- 4&#39;h0&#45;&gt;4&#39;h1 -->
<g id="edge1" class="edge transition">
<title>4&#39;h0&#45;&gt;4&#39;h1</title>
<path fill="none" stroke="#000000" d="M122,-425.8015C122,-415.3976 122,-402.1215 122,-390.3768"/>
<polygon fill="#000000" stroke="#000000" points="125.5001,-390.1476 122,-380.1476 118.5001,-390.1476 125.5001,-390.1476"/>
<text text-anchor="middle" x="123.3895" y="-400" font-family="Helvetica,sans-Serif" font-size="10.00" fill="#000000"> </text>
</g>
<!-- 4&#39;h3 -->
<g id="node9" class="node state regular">
<title>4&#39;h3</title>
<polygon fill="#ffffff" fill-opacity="0.003922" stroke="transparent" stroke-width="2" points="150,-298 94,-298 94,-262 150,-262 150,-298"/>
<text text-anchor="start" x="110.6684" y="-276.2" font-family="Helvetica,sans-Serif" font-size="12.00" fill="#000000">4&#39;h3</text>
<path fill="none" stroke="#ff0000" stroke-width="2" d="M106.3333,-263C106.3333,-263 137.6667,-263 137.6667,-263 143.3333,-263 149,-268.6667 149,-274.3333 149,-274.3333 149,-285.6667 149,-285.6667 149,-291.3333 143.3333,-297 137.6667,-297 137.6667,-297 106.3333,-297 106.3333,-297 100.6667,-297 95,-291.3333 95,-285.6667 95,-285.6667 95,-274.3333 95,-274.3333 95,-268.6667 100.6667,-263 106.3333,-263"/>
</g>
<!-- 4&#39;h1&#45;&gt;4&#39;h3 -->
<g id="edge2" class="edge transition">
<title>4&#39;h1&#45;&gt;4&#39;h3</title>
<path fill="none" stroke="#ff0000" d="M122,-343.8015C122,-333.3976 122,-320.1215 122,-308.3768"/>
<polygon fill="#ff0000" stroke="#ff0000" points="125.5001,-308.1476 122,-298.1476 118.5001,-308.1476 125.5001,-308.1476"/>
<text text-anchor="middle" x="123.3895" y="-318" font-family="Helvetica,sans-Serif" font-size="10.00" fill="#ff0000"> </text>
</g>
<!-- 4&#39;h2 -->
<g id="node4" class="node state regular">
<title>4&#39;h2</title>
<polygon fill="#ffffff" fill-opacity="0.003922" stroke="transparent" stroke-width="2" points="72,-134 16,-134 16,-98 72,-98 72,-134"/>
<text text-anchor="start" x="32.6684" y="-112.2" font-family="Helvetica,sans-Serif" font-size="12.00" fill="#000000">4&#39;h2</text>
<path fill="none" stroke="#000000" stroke-width="2" d="M28.3333,-99C28.3333,-99 59.6667,-99 59.6667,-99 65.3333,-99 71,-104.6667 71,-110.3333 71,-110.3333 71,-121.6667 71,-121.6667 71,-127.3333 65.3333,-133 59.6667,-133 59.6667,-133 28.3333,-133 28.3333,-133 22.6667,-133 17,-127.3333 17,-121.6667 17,-121.6667 17,-110.3333 17,-110.3333 17,-104.6667 22.6667,-99 28.3333,-99"/>
</g>
<!-- 4&#39;hf -->
<g id="node10" class="node state regular">
<title>4&#39;hf</title>
<polygon fill="#ffffff" fill-opacity="0.003922" stroke="transparent" stroke-width="2" points="72,-52 16,-52 16,-16 72,-16 72,-52"/>
<text text-anchor="start" x="34.3364" y="-30.2" font-family="Helvetica,sans-Serif" font-size="12.00" fill="#000000">4&#39;hf</text>
<path fill="none" stroke="#ff0000" stroke-width="2" d="M28.3333,-17C28.3333,-17 59.6667,-17 59.6667,-17 65.3333,-17 71,-22.6667 71,-28.3333 71,-28.3333 71,-39.6667 71,-39.6667 71,-45.3333 65.3333,-51 59.6667,-51 59.6667,-51 28.3333,-51 28.3333,-51 22.6667,-51 17,-45.3333 17,-39.6667 17,-39.6667 17,-28.3333 17,-28.3333 17,-22.6667 22.6667,-17 28.3333,-17"/>
</g>
<!-- 4&#39;h2&#45;&gt;4&#39;hf -->
<g id="edge3" class="edge transition">
<title>4&#39;h2&#45;&gt;4&#39;hf</title>
<path fill="none" stroke="#ff0000" d="M44,-97.8015C44,-87.3976 44,-74.1215 44,-62.3768"/>
<polygon fill="#ff0000" stroke="#ff0000" points="47.5001,-62.1476 44,-52.1476 40.5001,-62.1476 47.5001,-62.1476"/>
<text text-anchor="middle" x="45.3895" y="-72" font-family="Helvetica,sans-Serif" font-size="10.00" fill="#ff0000"> </text>
</g>
<!-- 4&#39;h4 -->
<g id="node5" class="node state regular">
<title>4&#39;h4</title>
<polygon fill="#ffffff" fill-opacity="0.003922" stroke="transparent" stroke-width="2" points="72,-216 16,-216 16,-180 72,-180 72,-216"/>
<text text-anchor="start" x="32.6684" y="-194.2" font-family="Helvetica,sans-Serif" font-size="12.00" fill="#000000">4&#39;h4</text>
<path fill="none" stroke="#000000" stroke-width="2" d="M28.3333,-181C28.3333,-181 59.6667,-181 59.6667,-181 65.3333,-181 71,-186.6667 71,-192.3333 71,-192.3333 71,-203.6667 71,-203.6667 71,-209.3333 65.3333,-215 59.6667,-215 59.6667,-215 28.3333,-215 28.3333,-215 22.6667,-215 17,-209.3333 17,-203.6667 17,-203.6667 17,-192.3333 17,-192.3333 17,-186.6667 22.6667,-181 28.3333,-181"/>
</g>
<!-- 4&#39;h4&#45;&gt;4&#39;h2 -->
<g id="edge4" class="edge transition">
<title>4&#39;h4&#45;&gt;4&#39;h2</title>
<path fill="none" stroke="#000000" d="M44,-179.8015C44,-169.3976 44,-156.1215 44,-144.3768"/>
<polygon fill="#000000" stroke="#000000" points="47.5001,-144.1476 44,-134.1476 40.5001,-144.1476 47.5001,-144.1476"/>
<text text-anchor="middle" x="45.3895" y="-154" font-family="Helvetica,sans-Serif" font-size="10.00" fill="#000000"> </text>
</g>
<!-- 4&#39;h8 -->
<g id="node6" class="node state regular">
<title>4&#39;h8</title>
<polygon fill="#ffffff" fill-opacity="0.003922" stroke="transparent" stroke-width="2" points="72,-298 16,-298 16,-262 72,-262 72,-298"/>
<text text-anchor="start" x="32.6684" y="-276.2" font-family="Helvetica,sans-Serif" font-size="12.00" fill="#000000">4&#39;h8</text>
<path fill="none" stroke="#000000" stroke-width="2" d="M28.3333,-263C28.3333,-263 59.6667,-263 59.6667,-263 65.3333,-263 71,-268.6667 71,-274.3333 71,-274.3333 71,-285.6667 71,-285.6667 71,-291.3333 65.3333,-297 59.6667,-297 59.6667,-297 28.3333,-297 28.3333,-297 22.6667,-297 17,-291.3333 17,-285.6667 17,-285.6667 17,-274.3333 17,-274.3333 17,-268.6667 22.6667,-263 28.3333,-263"/>
</g>
<!-- 4&#39;h8&#45;&gt;4&#39;h4 -->
<g id="edge5" class="edge transition">
<title>4&#39;h8&#45;&gt;4&#39;h4</title>
<path fill="none" stroke="#000000" d="M44,-261.8015C44,-251.3976 44,-238.1215 44,-226.3768"/>
<polygon fill="#000000" stroke="#000000" points="47.5001,-226.1476 44,-216.1476 40.5001,-226.1476 47.5001,-226.1476"/>
<text text-anchor="middle" x="45.3895" y="-236" font-family="Helvetica,sans-Serif" font-size="10.00" fill="#000000"> </text>
</g>
<!-- 4&#39;h9 -->
<g id="node7" class="node state regular">
<title>4&#39;h9</title>
<polygon fill="#ffffff" fill-opacity="0.003922" stroke="transparent" stroke-width="2" points="72,-462 16,-462 16,-426 72,-426 72,-462"/>
<text text-anchor="start" x="32.6684" y="-440.2" font-family="Helvetica,sans-Serif" font-size="12.00" fill="#000000">4&#39;h9</text>
<path fill="none" stroke="#000000" stroke-width="2" d="M28.3333,-427C28.3333,-427 59.6667,-427 59.6667,-427 65.3333,-427 71,-432.6667 71,-438.3333 71,-438.3333 71,-449.6667 71,-449.6667 71,-455.3333 65.3333,-461 59.6667,-461 59.6667,-461 28.3333,-461 28.3333,-461 22.6667,-461 17,-455.3333 17,-449.6667 17,-449.6667 17,-438.3333 17,-438.3333 17,-432.6667 22.6667,-427 28.3333,-427"/>
</g>
<!-- 4&#39;hc -->
<g id="node8" class="node state regular">
<title>4&#39;hc</title>
<polygon fill="#ffffff" fill-opacity="0.003922" stroke="transparent" stroke-width="2" points="72,-380 16,-380 16,-344 72,-344 72,-380"/>
<text text-anchor="start" x="33.0038" y="-358.2" font-family="Helvetica,sans-Serif" font-size="12.00" fill="#000000">4&#39;hc</text>
<path fill="none" stroke="#000000" stroke-width="2" d="M28.3333,-345C28.3333,-345 59.6667,-345 59.6667,-345 65.3333,-345 71,-350.6667 71,-356.3333 71,-356.3333 71,-367.6667 71,-367.6667 71,-373.3333 65.3333,-379 59.6667,-379 59.6667,-379 28.3333,-379 28.3333,-379 22.6667,-379 17,-373.3333 17,-367.6667 17,-367.6667 17,-356.3333 17,-356.3333 17,-350.6667 22.6667,-345 28.3333,-345"/>
</g>
<!-- 4&#39;h9&#45;&gt;4&#39;hc -->
<g id="edge6" class="edge transition">
<title>4&#39;h9&#45;&gt;4&#39;hc</title>
<path fill="none" stroke="#000000" d="M44,-425.8015C44,-415.3976 44,-402.1215 44,-390.3768"/>
<polygon fill="#000000" stroke="#000000" points="47.5001,-390.1476 44,-380.1476 40.5001,-390.1476 47.5001,-390.1476"/>
<text text-anchor="middle" x="45.3895" y="-400" font-family="Helvetica,sans-Serif" font-size="10.00" fill="#000000"> </text>
</g>
<!-- 4&#39;hc&#45;&gt;4&#39;h8 -->
<g id="edge7" class="edge transition">
<title>4&#39;hc&#45;&gt;4&#39;h8</title>
<path fill="none" stroke="#000000" d="M44,-343.8015C44,-333.3976 44,-320.1215 44,-308.3768"/>
<polygon fill="#000000" stroke="#000000" points="47.5001,-308.1476 44,-298.1476 40.5001,-308.1476 47.5001,-308.1476"/>
<text text-anchor="middle" x="45.3895" y="-318" font-family="Helvetica,sans-Serif" font-size="10.00" fill="#000000"> </text>
</g>
</g>
</svg>
